<svg width="430" height="415" viewBox="0 0 430 415" fill="none" xmlns="http://www.w3.org/2000/svg">
<path d="M351 139C351 139 370.5 139 370.5 157.5C370.5 176 351 175 351 175C351 175 352 230.2 351 231C350 231.8 307.251 230.249 306.5 231C305.749 231.751 306.5 262.5 306.5 262.5H284.5M243.5 123.5L217.5 143.5H190M243.5 123.5L263.5 143.5H298.5L306.5 139C306.5 139 323.5 151 334 139C344.5 127 334 113.5 334 113.5M243.5 123.5V94.5M190 143.5L178.5 133.5C178.5 133.5 187.5 121.105 175.5 111C163.5 100.895 152.5 116 152.5 116M190 143.5H121M284.5 262.5V231L265 212.5V190.75M284.5 262.5H228.5L195.5 295V268.25M334 198.5C334 198.5 344 182 329.5 171C315 160 302 175 302 175L294 169H265V190.75M195.5 205C195.5 205 211.5 205 212 223C212.5 241 195.5 241.5 195.5 241.5V268.25M265 190.75H228.5H220M172.5 190.75C172.5 170.5 152.5 171 152.5 171M172.5 190.75C171.033 208.5 152.5 208.5 152.5 208.5M172.5 190.75H220M220 190.75V177.5C220 177.5 238 177.5 238 163.5C238 149.5 220 150 220 150M195.5 268.25H121M121 268.25V237C121 237 139 236.5 140 217.5C141 198.5 121 198.5 121 198.5M121 268.25H93.5L63.5 295C63.5 295 89 314 69 331C49 348 32.5 324 32.5 324M121 143.5V113.5C121 113.5 141.5 116.5 142.5 94.5C143.5 72.5 121 75 121 75M121 143.5L93.5 171C93.5 171 115.5 185.5 102 205C88.5 224.5 63.5 205 63.5 205M121 143.5H32.5M243.5 94.5V81C287.978 78.0951 317.5 81 356 106C376.5 119.312 404.5 157 408.5 195.5C412.5 234 401.189 232.608 402.5 251C403.905 270.699 413.5 285.5 417 295C420.5 304.5 432 321 422 324C412 327 396 317.006 396 331C396 342 404.5 365.5 396 408.5C393.547 420.909 278 380.5 263.5 359.5C249 338.5 248 327 248 327M243.5 94.5H195.5L166.5 59.5M166.5 59.5V40C166.5 40 189.5 38.5 189.5 21C189.5 3.5 166.5 4 166.5 4M166.5 59.5H93.5M93.5 59.5C93.5 42 80.5 41.5 69 41.5M93.5 59.5C93.5 76.5 80 77 69 77M32.5 143.5C32.5 120 16.5 120 0.5 120M32.5 143.5C31 165 18.5 165 0.5 165" stroke="#5A5A5A" stroke-width="7"/>
</svg>
