<svg width="1015" height="939" viewBox="0 0 1015 939" fill="none" xmlns="http://www.w3.org/2000/svg">
<path d="M370 932C400 928 400 894 400 894L352.204 635.544C348.609 616.105 331.655 602 311.887 602H250.455C242.387 602 235.764 595.618 235.465 587.555L231 467L285.656 487.394C293.819 490.44 302.462 492 311.176 492H395C395 492 426 492 427 460C428 428 395 428 395 428H301.097C295.158 428 289.343 426.294 284.346 423.084L197.815 367.514C188.142 361.302 176.889 358 165.393 358H150L127.799 359.08C89.7263 360.932 61.1334 394.559 65.4259 432.434L74.5 512.5M497 525H695C695 525 717 525 717 553C717 581 695 576 695 576H524V914C524 914 524 935 501 935M157 764H245C245 764 265.5 764.5 265.5 738.5C265.5 712.5 245 711 245 711H104.923C85.1336 711 68.3189 696.53 65.3694 676.962L29.5001 439C29.5001 439 25 416.5 1.00006 420.5M845.5 334.5C845.5 334.5 932 338.5 933.5 250.5C935 162.5 845.5 162.5 845.5 162.5C845.5 162.5 762 162.5 762 250.5M620.5 929C658.5 939 667 905 667 905L707.79 700.586C709.656 691.234 717.866 684.5 727.403 684.5H852.819C875.618 684.5 894.977 667.801 898.322 645.249L928.414 442.357C935.044 397.654 900.407 357.5 855.215 357.5H836.964C827.16 357.5 817.528 360.074 809.031 364.964L718.259 417.204C705.969 424.277 692.037 428 677.856 428H582C582 428 559 428 559.5 460M965.5 440C965.5 440 975 417 995 424C1015 431 1011 452 1011 452L982.522 673.771C975.916 725.22 932.408 763.935 880.54 764.519L749 766C749 766 732.5 765 731 743C729.5 721 749 716.5 749 716.5M143 334.5C143 334.5 229.5 338.5 231 250.5C232.5 162.5 143 162.5 143 162.5C143 162.5 59.5 162.5 59.5 250.5" stroke="#5A5A5A" stroke-width="18"/>
<path d="M498 421L541 408M483.5 393.5L548 373.5M548 349.5C557.5 316 561.806 305.583 571.5 284C582.664 259.144 611.292 235.046 613.5 195.5C613.5 195.5 623 102.5 516.5 99.5M663.5 284L696.5 301.5M678.5 195.5H711.5M653 111.5L685 90.5M599 65.5L622 28.5M516.5 41.5V0" stroke="#5A5A5A" stroke-width="18"/>
</svg>
