<svg width="944" height="749" viewBox="0 0 944 749" fill="none" xmlns="http://www.w3.org/2000/svg">
<path d="M73 741H916L864 710M233 710V433H220.5M428 710V217.5H315.5M611 710V372.5H498.5M794.5 711V125H682M682 30L738 14.5L548.5 238.5L368.5 70.5L235.258 228" stroke="#5A5A5A" stroke-width="15"/>
<path d="M201.936 423.352C176.07 451.131 138.873 468.563 97.5 468.563C64.815 468.563 34.7445 457.686 10.8023 439.425L53.7479 390.628L97.1857 341.273L201.936 423.352Z" stroke="#5A5A5A" stroke-width="15"/>
<path d="M219.358 401.299C256.536 346.342 250.523 270.018 201.32 221.971C174.277 195.563 139.542 182.24 104.737 182V310.197L219.358 401.299Z" fill="#5A5A5A"/>
<path d="M201.32 221.971L206.56 216.605L206.56 216.605L201.32 221.971ZM219.358 401.299L214.692 407.171L221.032 412.21L225.571 405.502L219.358 401.299ZM104.737 310.197H97.2366V313.816L100.07 316.068L104.737 310.197ZM104.737 182L104.788 174.5L97.2366 174.448V182H104.737ZM225.571 405.502C264.726 347.62 258.428 267.254 206.56 216.605L196.08 227.337C242.618 272.781 248.346 345.063 213.146 397.097L225.571 405.502ZM224.025 395.428L109.403 304.325L100.07 316.068L214.692 407.171L224.025 395.428ZM104.685 189.5C137.6 189.726 170.461 202.32 196.08 227.337L206.56 216.605C178.093 188.807 141.483 174.753 104.788 174.5L104.685 189.5ZM112.237 310.197V182H97.2366V310.197H112.237Z" fill="#5A5A5A"/>
</svg>
