<svg width="1173" height="749" viewBox="0 0 1173 749" fill="none" xmlns="http://www.w3.org/2000/svg">
<path d="M843 741V748.5H870.227L846.84 734.558L843 741ZM160 433H167.5V425.5H160V433ZM355 217.5H362.5V210H355V217.5ZM538 372.5H545.5V365H538V372.5ZM721.5 125H729V117.5H721.5V125ZM295.5 70.5L300.617 65.0171L294.86 59.6438L289.774 65.656L295.5 70.5ZM475.5 238.5L470.383 243.983L476.14 249.356L481.226 243.344L475.5 238.5ZM665 14.5L670.726 19.344L686.424 0.788231L662.999 7.27177L665 14.5ZM0 748.5H843V733.5H0V748.5ZM846.84 734.558L794.84 703.558L787.16 716.442L839.16 747.442L846.84 734.558ZM167.5 710V433H152.5V710H167.5ZM160 425.5H47.5V440.5H160V425.5ZM362.5 710V217.5H347.5V710H362.5ZM355 210H242.5V225H355V210ZM545.5 710V372.5H530.5V710H545.5ZM538 365H425.5V380H538V365ZM729 711V125H714V711H729ZM721.5 117.5H609V132.5H721.5V117.5ZM111.726 299.344L301.226 75.344L289.774 65.656L100.274 289.656L111.726 299.344ZM481.226 243.344L670.726 19.344L659.274 9.65601L469.774 233.656L481.226 243.344ZM662.999 7.27177L606.999 22.7718L611.001 37.2282L667.001 21.7282L662.999 7.27177ZM290.383 75.9829L470.383 243.983L480.617 233.017L300.617 65.0171L290.383 75.9829Z" fill="#5A5A5A"/>
<path d="M957.622 461.299C994.799 406.342 988.786 330.018 939.583 281.971C912.54 255.563 877.805 242.24 843 242V370.197L957.622 461.299Z" fill="#5A5A5A"/>
<path d="M939.583 490L944.823 495.366L944.823 495.366L939.583 490ZM939.583 281.971L944.823 276.605L944.823 276.605L939.583 281.971ZM944.264 485.205L949.002 479.391L948.964 479.36L948.925 479.329L944.264 485.205ZM957.622 461.299L952.955 467.171L959.296 472.21L963.834 465.502L957.622 461.299ZM843 370.197H835.5V373.816L838.333 376.068L843 370.197ZM843 242L843.052 234.5L835.5 234.448V242H843ZM1148.1 651.281L1152.84 645.467L1148.1 651.281ZM1162.65 649.206L1168.82 653.464L1162.65 649.206ZM843.052 537.471C879.746 537.218 916.356 523.164 944.823 495.366L934.343 484.634C908.724 509.651 875.864 522.244 842.948 522.471L843.052 537.471ZM944.823 495.366C946.515 493.714 948.159 492.029 949.755 490.315L938.774 480.096C937.341 481.636 935.864 483.149 934.343 484.634L944.823 495.366ZM832.339 406L939.604 491.081L948.925 479.329L841.661 394.248L832.339 406ZM963.834 465.502C1002.99 407.62 996.691 327.254 944.823 276.605L934.343 287.337C980.881 332.781 986.609 405.063 951.409 457.097L963.834 465.502ZM962.288 455.428L847.667 364.325L838.333 376.068L952.955 467.171L962.288 455.428ZM842.948 249.5C875.864 249.726 908.724 262.32 934.343 287.337L944.823 276.605C916.356 248.807 879.746 234.753 843.052 234.5L842.948 249.5ZM850.5 370.197V242H835.5V370.197H850.5ZM939.527 491.02L1143.36 657.095L1152.84 645.467L949.002 479.391L939.527 491.02ZM1168.82 653.464L1172.67 647.882L1160.33 639.366L1156.48 644.948L1168.82 653.464ZM1143.36 657.095C1151.28 663.548 1163.02 661.873 1168.82 653.464L1156.48 644.948C1155.65 646.149 1153.97 646.388 1152.84 645.467L1143.36 657.095Z" fill="#5A5A5A"/>
</svg>
