<svg width="352" height="503" viewBox="0 0 352 503" fill="none" xmlns="http://www.w3.org/2000/svg">
<path d="M0 499H251C256.523 499 261 494.523 261 489V449.19C261 443.667 256.523 439.19 251 439.19H131.296H0M0 373H131.296L251.061 373.736C256.56 373.77 261 378.237 261 383.736V424.006C261 429.529 256.523 434.006 251 434.006H131.296H0M160.738 466.304H232.752M160.738 471.487H232.752M160.738 401.709H232.752M160.738 406.892H232.752M18.7162 460.722H19.0811C23.2651 460.722 26.657 464.113 26.657 468.297V468.297C26.657 472.482 23.2651 475.873 19.0811 475.873H18.7162C14.5321 475.873 11.1402 472.482 11.1402 468.297V468.297C11.1402 464.113 14.5321 460.722 18.7162 460.722ZM18.7162 396.924H19.0811C23.2651 396.924 26.657 400.316 26.657 404.5V404.5C26.657 408.684 23.2651 412.076 19.0811 412.076H18.7162C14.5321 412.076 11.1402 408.684 11.1402 404.5V404.5C11.1402 400.316 14.5321 396.924 18.7162 396.924Z" stroke="#5A5A5A" stroke-width="10"/>
<path d="M348 85C348 44 260 4 130 4M348 85C348 125 233 162 130 162M348 85C348 85 348 159 348 199M348 199C348 239 235 272 130 272M348 199C348 218.771 348 263.605 348 312M348 312C348 361.513 348 414.473 348 423C348 440.618 314.203 463.409 262 479.423M348 312C348 333.14 312.743 354.607 262 369.126L253.5 371.5L241 374" stroke="#5A5A5A" stroke-width="10"/>
</svg>
