<svg width="407" height="370" viewBox="0 0 407 370" fill="none" xmlns="http://www.w3.org/2000/svg">
<rect width="407" height="370" fill="none"/>
<path d="M0.5 3.50005H393C398.523 3.50005 403 7.9772 403 13.5V281.5C403 287.023 398.523 291.5 393 291.5H224C221.239 291.5 219 293.739 219 296.5V327H297C299.761 327 302 329.239 302 332V339.5C302 342.261 299.761 344.5 297 344.5H204.5M25.5 30.5001H364C369.523 30.5001 374 34.9772 374 40.5001V220.5C374 226.023 369.523 230.5 364 230.5H204.5" stroke="#5A5A5A" stroke-width="7"/>
<path d="M113.5 356.5H192C195.866 356.5 199 353.366 199 349.5V111C199 107.134 195.866 104 192 104H23M113.5 311H169C172.866 311 176 307.866 176 304V128.5C176 124.634 172.866 121.5 169 121.5H43.5M113.5 344C113.5 344 124.5 343 124.5 332.5C124.5 322 113.5 322 113.5 322" stroke="#5A5A5A" stroke-width="7"/>
<path d="M68.5 366.5H102.5C105.261 366.5 107.5 364.261 107.5 361.5V227C107.5 224.239 105.261 222 102.5 222H25M68.5 339H91C93.7614 339 96 336.761 96 334V238C96 235.239 93.7614 233 91 233H34.5" stroke="#5A5A5A" stroke-width="7"/>
</svg>
